<svg width="100" height="100" viewBox="0 0 100 100" fill="none" xmlns="http://www.w3.org/2000/svg">
  <g>
    <circle cx="20" cy="25" r="6" stroke="#000000" strokeWidth="1.5" fill="none" />
    <path d="M 20 31 L 20 60" stroke="#000000" strokeWidth="1.5" fill="none" />
    <path d="M 20 38 Q 12 34 10 28" stroke="#000000" strokeWidth="1.5" fill="none" />
    <path d="M 20 38 L 28 46" stroke="#000000" strokeWidth="1.5" fill="none" />
    <path d="M 20 60 L 16 78" stroke="#000000" strokeWidth="1.5" fill="none" />
    <path d="M 20 60 L 24 78" stroke="#000000" strokeWidth="1.5" fill="none" />
    <rect x="16" y="31" width="8" height="6" fill="#000000" />
    <path d="M 18 45 L 18 60 L 22 60 L 22 45 Z" fill="#000000" />
    <path d="M 14 25 Q 8 20 6 12 Q 5 5 8 4 Q 12 3 14 8" fill="#000000" />
    <rect x="26" y="44" width="3" height="2" stroke="#000000" strokeWidth="0.8" fill="none" rx="0.3" />
    <rect x="45" y="15" width="28" height="35" rx="2" fill="none" stroke="#000000" strokeWidth="2" />
    <rect x="48" y="18" width="22" height="29" rx="1.5" fill="white" stroke="#000000" strokeWidth="0.8" />
    <rect x="70" y="30" width="2" height="6" fill="#000000" rx="0.5" />
    <g transform="translate(51, 21)">
      <path d="M 3 4 Q 4 2 5 4 Q 6 2 7 4 L 7 6" stroke="white" strokeWidth="1.2" fill="none" />
      <rect x="2" y="2" width="6" height="6" fill="#000000" />
    </g>
    <g transform="translate(60, 21)">
      <path d="M 4 2 Q 5 4 4 6 Q 3 5 4 2" stroke="#000000" strokeWidth="1" fill="none" />
    </g>
    <g transform="translate(51, 32)">
      <rect x="1" y="4" width="1.5" height="3" fill="#000000" />
      <rect x="3" y="3" width="1.5" height="4" fill="#000000" />
      <rect x="5" y="1" width="1.5" height="6" fill="#000000" />
    </g>
    <g transform="translate(60, 32)">
      <rect x="1" y="3" width="5" height="1.5" fill="#000000" />
      <rect x="0" y="2.5" width="1.5" height="2.5" fill="#000000" />
      <rect x="6.5" y="2.5" width="1.5" height="2.5" fill="#000000" />
    </g>
    <rect x="45" y="50" width="28" height="6" fill="#000000" />
  </g>
</svg>
